<?xml version="1.0" standalone="no"?>
<!DOCTYPE svg PUBLIC "-//W3C//DTD SVG 20010904//EN"
 "http://www.w3.org/TR/2001/REC-SVG-20010904/DTD/svg10.dtd">
<svg version="1.0" xmlns="http://www.w3.org/2000/svg"
 width="512.000000pt" height="512.000000pt" viewBox="0 0 512.000000 512.000000"
 preserveAspectRatio="xMidYMid meet">
<metadata>
Created by potrace 1.11, written by Peter Selinger 2001-2013
</metadata>
<g transform="translate(0.000000,512.000000) scale(0.100000,-0.100000)"
fill="#000000" stroke="none">
<path d="M2010 5069 c-66 -13 -162 -63 -210 -111 -81 -81 -119 -176 -115 -285
3 -76 19 -124 62 -191 45 -67 91 -105 175 -145 62 -29 66 -33 73 -71 4 -23 9
-48 11 -56 25 -119 29 -149 23 -180 -4 -19 -10 -57 -14 -85 -12 -113 -10 -109
-93 -150 -116 -57 -239 -139 -326 -218 -11 -9 -27 -15 -35 -12 -9 2 -46 9 -84
16 -59 10 -77 19 -145 70 -66 51 -79 66 -92 107 -23 71 -45 106 -91 145 -111
96 -269 88 -375 -17 -62 -63 -84 -120 -80 -209 8 -167 161 -287 326 -257 35 6
43 3 113 -51 58 -46 80 -70 100 -113 42 -87 42 -95 3 -191 -38 -94 -81 -255
-92 -345 -4 -30 -8 -119 -9 -197 -1 -98 -5 -147 -14 -157 -7 -9 -57 -47 -110
-85 -84 -60 -112 -74 -224 -109 l-128 -41 -44 34 c-94 71 -251 91 -366 47
-155 -61 -252 -213 -245 -382 7 -146 90 -270 224 -333 61 -29 76 -32 162 -32
86 0 101 3 162 32 38 18 86 51 114 79 48 49 100 146 107 199 3 28 9 31 118 67
112 37 116 38 249 36 156 -3 161 -5 218 -94 62 -95 168 -215 263 -299 63 -56
72 -76 66 -149 -12 -132 -30 -210 -62 -275 -18 -36 -52 -106 -76 -155 -41 -84
-47 -91 -98 -117 -106 -55 -150 -120 -158 -235 -5 -62 -2 -79 20 -128 44 -95
126 -154 228 -163 199 -18 344 163 290 364 -11 40 -10 45 68 205 73 150 86
169 157 242 43 43 93 85 112 93 33 14 92 13 163 -3 13 -3 71 -7 129 -11 100
-5 146 -18 176 -48 7 -7 40 -57 73 -111 42 -69 65 -119 75 -164 8 -36 22 -93
31 -127 l17 -63 -32 -40 c-74 -93 -91 -249 -40 -355 127 -263 494 -267 622 -7
29 59 33 76 33 152 0 71 -4 94 -26 141 -34 73 -90 130 -164 167 l-61 31 -32
133 c-29 118 -32 144 -27 228 10 185 12 188 122 252 69 40 116 75 266 198 24
20 42 25 86 26 31 0 71 -3 88 -7 48 -10 203 -119 203 -141 0 -51 71 -145 138
-181 195 -106 432 49 409 268 -6 61 -43 138 -84 177 -61 58 -175 88 -256 67
-36 -9 -41 -7 -114 43 -62 42 -84 65 -110 111 -39 71 -42 103 -14 187 29 87
52 175 57 224 10 79 29 102 125 151 100 50 107 52 230 61 82 6 87 5 94 -15 10
-33 79 -110 130 -147 160 -113 382 -86 523 64 76 80 112 170 118 288 8 186
-83 343 -245 421 -73 35 -190 43 -273 19 -109 -32 -211 -121 -261 -228 -12
-27 -29 -48 -37 -49 -8 0 -28 -2 -45 -4 -148 -16 -159 -15 -254 11 -115 32
-141 53 -171 137 -29 79 -98 215 -149 291 -22 32 -38 66 -36 75 2 9 18 56 35
104 34 92 27 84 211 278 28 30 42 36 79 38 88 4 184 73 226 159 29 59 28 167
-1 229 -91 198 -363 222 -481 43 -32 -48 -53 -122 -48 -166 3 -27 -6 -42 -74
-115 -130 -140 -139 -148 -184 -168 -24 -10 -63 -28 -88 -40 -24 -11 -49 -21
-54 -21 -6 0 -60 25 -120 55 -60 30 -123 59 -140 64 -17 5 -62 19 -101 30 -38
12 -85 24 -104 27 -18 3 -43 8 -55 10 -33 7 -147 16 -194 16 -39 0 -46 4 -71
39 -78 107 -108 173 -131 283 l-22 110 41 34 c141 117 178 321 86 477 -66 113
-194 191 -326 198 -41 2 -94 0 -119 -4z"/>
<path d="M697 4986 c-141 -51 -223 -195 -192 -338 47 -218 311 -305 478 -158
200 175 81 502 -185 508 -34 1 -80 -5 -101 -12z"/>
<path d="M660 1027 c-115 -30 -174 -161 -120 -271 30 -64 87 -99 164 -104 54
-3 66 0 108 27 102 65 122 196 44 288 -46 55 -125 79 -196 60z"/>
<path d="M4154 780 c-99 -46 -159 -130 -168 -235 -18 -219 218 -376 413 -276
153 79 202 280 102 418 -80 111 -224 149 -347 93z"/>
</g>
</svg>
