<svg xmlns="http://www.w3.org/2000/svg" viewBox="0 0 511.266 511.266"><circle cx="255.616" cy="255.633" r="255.616" fill="#65b1ef"/><g fill="#e9eff4"><path d="M131.392 470.129c-.048.096-.112.16-.16.256.384.096.752.224 1.136.304l-.976-.56zM115.312 109.857l-.512-1.04c4.272-.64 4.56-3.648 7.808-4.752 3.696-1.216 2.432.112 6.064 0 2.944-.128 4.736 2.016 8.096.448-.816 1.44-2.144 2.432-3.472 3.408-2.768 1.968-5.6 3.984-8.896 4.752-3.296.752-7.168-.048-9.088-2.816z"/><path d="M166.448 337.697c-.064 2.256-1.392 4.224-2.544 6.128-5.136 8.384-8.256 18.096-8.944 27.936-.688 9.424-.272 21.04-8.48 25.68-4.688 2.608-11.28 2.144-14.4 6.544-.976 1.328-1.44 3.008-1.904 4.576-2.016 7.344-4.048 14.688-6.064 22.032a318.362 318.362 0 01-7.856-.8c3.072.976 5.2 5.136 3.36 7.984-2.944-1.552-6.816.288-8.448 3.248-1.552 2.944-1.328 6.528-.464 9.776 2.672 9.6 10.88 17.344 20.544 19.648-1.68 3.184-6.816 1.792-9.952-.336-22.384-15.136-39.28-38.192-46.992-64.096-2.72-9.136-4.464-18.848-9.792-26.704-4.448-6.64-11.168-11.504-15.616-18.144-6.24-9.536-7.408-21.904-14.64-30.624-4.048-4.976-10.304-11.088-6.72-16.416 1.44-2.192 4.512-4.272 3.296-6.592-.4-.752-1.216-1.216-1.856-1.856-2.432-2.608-.752-6.704.464-10.064 2.016-5.84 2.016-12.08 1.152-18.32-6.08-5.44-10.88-12.192-13.888-19.776-1.792-4.624-4.176-10.4-9.136-10.464-1.28-3.584-2.608-7.168-3.888-10.752-.464 1.28-1.728 2.08-3.12 2.256C4.4 179.985 28.016 126.833 64.768 85.649c.816-.352 1.616-.816 2.432-1.28 8.72-5.088 15.664-12.72 24.096-18.272 1.728-1.152 3.696-2.256 5.84-2.032 2.08.176 4.048 2.304 3.296 4.272-.288.816-.976 1.456-1.68 1.968A178.313 178.313 0 0166.56 92.129c-1.376.688-2.832 1.504-3.456 2.896-1.168 2.368.8 5.312 3.296 6.176 2.48.864 5.264.352 7.808-.224-2.144 3.056-2.784 7.168-1.68 10.752 2.368.224 3.12-3.008 3.824-5.264 2.88-8.96 17.168-12.608 16.24-22.048 3.872 2.016 7.808-2.496 10.176-6.192 2.368-3.76 7.632-7.456 10.528-4.16.16 1.84.384 3.696.56 5.552 5.088-1.28 10.24-2.608 15.328-3.888-2.896 2.032-3.872 6.368-2.208 9.488 1.68 3.12 5.84 4.688 9.136 3.408-.048 2.72-2.48 4.8-4.688 6.416-5.6 4.224-11.616 8.56-18.144 10.64l1.504 3.12c-.16.064-.336.128-.512.128-4.16.4-8.56-2.592-13.008-2.016-2.72.352-6.064.352-7.632 3.12-.224.352-1.2 5.2-.512 4.8 2.432-1.392 4.848-2.784 7.232-4.16.736 1.968.912 4.16.512 6.304 2.944-.288 6.016.336 8.624 1.904-2.72 6.304-9.712 10.528-16.592 10-.064-2.08-.176-4.16-.24-6.24-5.664-.464-10.288 4.4-13.12 9.264-2.88 4.912-5.072 10.528-9.824 13.648-2.88 1.968-6.416 2.72-9.536 4.336-3.056 1.68-5.888 4.864-5.248 8.272.288 1.616 1.328 3.12 1.28 4.8-.176 3.12-3.808 4.576-6.24 6.592-4.16 3.472-5.2 9.84-9.648 12.896-3.232 2.256-7.52 2.208-11.28 3.36-3.76 1.152-7.52 4.912-6 8.56-1.856.64-4.112-.752-4.288-2.72-6.64 13.072-11.024 27.296-12.816 41.872 3.296 2.304 6.64-2.96 7.28-6.944.688-3.984 4.16-9.2 7.392-6.832-.752 5.728-1.504 11.392-2.24 17.12-.176 1.104-.288 2.256.24 3.232.64 1.216 2.016 1.728 3.072 2.592 2.944 2.544 2.544 7.056 2.72 10.928.176 4.736 1.744 9.36 4.224 13.408-.24-.816-.4-1.616-.576-2.432 4.512.576 9.2-.88 12.608-3.888 1.792-1.616 3.296-3.696 5.552-4.512 2.32-.864 4.864-.24 7.232.4 7.344 2.016 15.152 4.272 20.064 10.048 2.48 2.944 4.048 6.656 7.008 9.072 6.704 5.664 18.048 3.168 24.176 9.472 4.912 5.088 4 13.296 2.672 20.288-3.36-1.84-7.856 2.784-5.888 6.08 1.792-1.968 3.872-4.048 6.48-4.048 2.656-.064 4.976 3.584 3.008 5.264 4.624-5.904 15.952-3.472 17.744 3.872 6.48.464 13.008.912 19.488 1.44-1.248 9.504 18.656 10.064 18.256 19.616zM127.04 70.193c-2.496 1.232-5.936-.16-6.864-2.784-.944-2.624.832-5.872 3.552-6.496 1.712-.4 4.096-.208 4.624-1.888.16-.512.064-1.072.064-1.6-.064-3.168 2.768-5.792 5.824-6.592 3.056-.784 6.288-.176 9.392.432a11.651 11.651 0 01.896 7.424c-2.128.096-4.256.176-6.384.272.192 3.536-.16 7.984-3.44 9.296-2.944 1.168-6.784-1.008-9.232.976M160.176 34.881c5.808-2.784 10.72-7.168 16.448-10.112 9.856-5.056 21.36-5.504 32.432-5.856l75.6-2.352c-5.84 3.2-11.68 6.416-17.536 9.616-4.768 2.624-10.192 5.312-15.424 3.824-.112 4.208 3.712 8.112 7.936 8.08-10.352 6.4-24.72-.144-35.648 5.232-4.576 2.256-8.272 6.512-13.312 7.312-2.912.464-5.936-.32-8.832.32-4.848 1.056-7.904 5.648-11.488 9.072-4.128 3.952-10.192 6.656-15.584 4.768-5.392-1.888-8.208-9.904-3.888-13.648 2.128-1.84 5.168-2.144 7.68-3.44 2.512-1.28 4.496-4.72 2.608-6.816-.816-.912-2.16-1.264-2.912-2.24-.816-1.056-.736-2.56-1.408-3.712-2.56-4.496-9.68 1.552-14.528-.256M236.704 56.145c3.408-.784 6.368-2.8 9.552-4.272s6.976-2.336 10.096-.784c.928 2.32-1.744 4.432-4.096 5.264a28.648 28.648 0 01-14.128 1.232M442.736 81.569a8.137 8.137 0 01-2.896-.176c-4.336-.928-7.632-4.272-11.344-6.704-8.56-5.664-20.24-6.4-29.488-1.776 2.192-3.184 3.296-7.12 3.056-10.992l-1.328.464c-15.152-8.784-32.912-17.904-49.44-12-3.824 1.392-7.28 3.472-11.152 4.8-4.112 1.44-8.672 2.032-12.192 4.576-3.584 2.544-5.488 8.16-2.416 11.216 2.608 2.608 6.768 1.904 10.416 2.256 3.584.352 7.696 3.92 5.728 6.992-15.84 7.408-31.728 14.88-47.568 22.352 7.28 2.368 12.096 10.624 10.528 18.144-5.328.928-10.464-2.304-15.84-2.656-7.808-.4-15.264 6.48-15.424 14.288-.224 7.808 6.944 15.024 14.752 14.912 5.84-.064 11.568-3.584 17.232-2.096.224-5.328 3.872-9.84 7.616-13.648 7.28-7.296 17.68-13.888 27.408-10.304 3.184 1.152 5.904 3.296 8.56 5.424 5.84 4.624 11.68 9.296 17.536 13.984 1.856-1.904 3.696-3.824 5.552-5.664 3.184 3.36 6.368 6.704 9.6 10.112 1.616-1.104 3.296-2.144 4.912-3.248 1.152 3.008 2.368 5.952 3.536 8.96.464-3.296.864-6.528 1.264-9.776 3.824.112 7.872.224 11.328-1.504 3.472-1.68 6.016-5.84 4.56-9.424-.752-1.904-2.544-3.408-2.896-5.44-.752-4.048 5.024-6.816 8.784-4.976 3.696 1.792 5.552 6.016 7.12 9.888.864-3.936 1.664-7.808 2.544-11.744a92.891 92.891 0 0015.312 26.208c-11.856-2.256-24.352-.96-35.44 3.6 3.536 4.976 9.6 7.92 15.68 7.68 2.72-.064 5.728-.688 7.808 1.04 1.568 1.328 1.968 3.472 2.256 5.44.928 5.552 1.856 11.04 2.72 16.528-6.256-5.136-15.264-4.56-23.424-4.72-8.16-.224-17.696-2.48-20.704-10.048-3.232 3.648-4.672 8.848-3.744 13.712-8.448-2.016-18.16-5.248-20.592-13.584-6.592 2.432-14.8-1.776-16.592-8.544-.64-2.368-.816-5.264-2.896-6.528-1.264-.752-2.896-.64-4.4-.464-12.544 1.456-25.04 2.848-37.52 4.304-6.816.816-13.872 1.632-19.888 4.976-6.016 3.296-10.8 9.776-10.112 16.608-11.504 6.832-21.264 16.72-27.856 28.352-2.08 3.584-3.872 7.696-3.056 11.744.576 3.12 2.656 5.776 3.296 8.848 1.104 5.264-1.904 10.352-3.168 15.552-3.584 14.8 7.648 28.736 18.064 39.936 4.912 5.2 10.592 10.864 17.76 11.152 4.448.176 8.672-1.792 12.832-3.424 11.904-4.688 24.864-6.832 37.632-6.32-2.896 2.256.112 7.168 3.712 7.92 3.584.752 7.456-.416 10.928.8 7.92 2.832 6.832 14.448 3.248 22.032 1.792-.352 3.648-.704 5.488-1.04a947.307 947.307 0 01-2.944 7.568c10.864 1.376 14.976 15.664 12.448 26.352-2.48 10.704-8.832 20.528-9.008 31.52-.048 6.016 1.792 11.856 3.648 17.568 4.64 14.512 9.264 29.024 13.904 43.584 12.96 1.552 20.4-14.928 32.432-20.08 4.512-1.968 9.824-2.368 13.36-5.728 3.408-3.232 2.304-10.816-2.08-10.816 5.952-.64 11.04-6.08 11.216-12.096.064-1.68-.176-3.36.048-5.024.4-2.368 1.904-4.448 3.344-6.48 9.184-13.184 15.136-28.288 21.088-43.2 1.552-4 3.12-7.92 4.672-11.92 5.888-14.864 11.728-29.664 17.616-44.528 2.304-5.84 4.624-11.616 6.928-17.472-3.184 5.264-11.504 4.576-16.256.64-4.8-3.92-7.296-9.888-11.056-14.8-3.184-4.224-7.472-7.968-8.976-13.12-.864-2.944-.704-6.128-1.216-9.2-1.168-6.656-5.552-12.192-8.56-18.208s-4.576-13.808-.352-19.088c12.16 21.216 23.216 43.056 33.216 65.44 1.104-3.472 3.648-6.48 6.88-8.16 2.368-1.28 5.024-1.792 7.52-2.832 6.592-2.896 11.152-9.888 11.152-17.056-.064-7.168-4.624-14.16-11.28-16.992-3.296-1.392-7.056-1.84-10.176-3.76-3.12-1.84-5.376-6.064-3.408-9.136 1.84-2.896 6.304-2.832 9.36-1.216 3.072 1.68 5.328 4.512 8.208 6.416 2.08 1.392 4.512 2.304 6.768 3.584 12.208 6.992 15.216 22.896 17.776 36.768 1.392 7.456 2.96 14.864 4.816 22.144.064-1.568.048-3.184.048-4.736-.064-67.232-26.064-128.336-68.528-173.936zm23.408 84c-1.68-.112-3.232-1.216-4.576-2.256-2.192-1.728-4.4-3.76-5.04-6.48-.752-3.232.8-6.944-.928-9.824-.816-1.392-2.256-2.256-3.472-3.232-3.184-2.544-5.504-6.192-6.368-10.112-.752-3.472.336-8.096 3.872-8.672 1.68-.288 3.52.64 4.272 2.192l-2.368 1.28c3.984.464 5.84 6.48 2.784 9.072-.4.4-.928.752-.928 1.328 0 .352.224.688.528.928 2.48 2.72 6.192 3.696 9.424 5.424 3.232 1.68 6.416 4.8 5.904 8.384-1.04.4-2.016.752-3.056 1.152-1.104 1.104-.224 3.072.928 4.16s2.656 2.192 2.72 3.808c0 1.744-1.968 2.96-3.696 2.848zM467.808 343.457l-4.176 2.96c1.456 5.12-1.456 11.12-6.4 13.12-2.608 1.056-6.08 1.52-6.96 4.192-.736 2.272 1.024 4.576 1.264 6.944.384 3.936-3.296 6.88-5.952 9.808s-4.064 8.432-.528 10.192c.816.416 1.76.496 2.672.576 3.84.336 8.048.448 11.184-1.792 8.992-6.416.448-23.824 9.328-30.416 1.264-.928 2.848-1.6 3.536-3.008 2.096-4.144-5.632-8.256-3.968-12.576z"/></g></svg>